# xmcd
#
# Track frame offsets: 
#        150
#        18415
#        34408
#        59448
#
# Disc length: 1002 seconds
#
# Revision: 0
# Processed by: cddbd v1.5.2PL0 Copyright (c) Steve Scherf et al.
# Submitted via: ExactAudioCopyFreeDBPlugin 1.0
#
DISCID=3003e804
DTITLE=Grapefruit Moon - Grapefruit Moon
DYEAR=2014
DGENRE=Country
TTITLE0=Suzie
TTITLE1=My Sweet Friend
TTITLE2=Rosie
TTITLE3=Where the Water's High
EXTD=
EXTT0=
EXTT1=
EXTT2=
EXTT3=
PLAYORDER=
